<?xml version="1.0" encoding="utf-8"?>
<svg width="1000px" height="1000px" viewBox="0 0 1000 1000" version="1.1" xmlns:xlink="http://www.w3.org/1999/xlink" xmlns="http://www.w3.org/2000/svg">
  <defs>
    <radialGradient gradientUnits="objectBoundingBox" cx="50%" cy="0%" fx="50%" fy="0%" r="100%" gradientTransform="translate(0.5,0),rotate(90),scale(1,0.5),translate(-0.5,-0)" id="gradient_1">
      <stop offset="0%" stop-color="#080043" />
      <stop offset="100%" stop-color="#02002E" />
    </radialGradient>
    <linearGradient gradientUnits="objectBoundingBox" x1="0.5" y1="0" x2="0.5" y2="1" id="gradient_2">
      <stop offset="0%" stop-color="#82B1F8" />
      <stop offset="100%" stop-color="#FFFFFF" />
    </linearGradient>
    <path d="M1000 0L1000 0L1000 1000L0 1000L0 0L1000 0Z" id="path_1" />
    <clipPath id="clip_1">
      <use xlink:href="#path_1" clip-rule="evenodd" fill-rule="evenodd" />
    </clipPath>
  </defs>
  <g id="Logo Blue">
    <path d="M1000 0L1000 0L1000 1000L0 1000L0 0L1000 0Z" id="Logo-Blue" fill="url(#gradient_1)" stroke="none" />
    <g id="Logo-PEYRONNET" transform="translate(43 313)" clip-path="url(#clip_1)">
      <g id="GRP">
        <g transform="translate(0, 75)" fill="url(#gradient_2)" stroke="none" id="GRP">
          <path d="M163.2 303Q138.3 303 115.8 296.1Q93.3 289.2 75.9 275.7Q58.5 262.2 48.45 241.95Q38.4 221.7 38.4 195Q38.4 172.5 48.3 153Q58.2 133.5 76.05 118.95Q93.9 104.4 117.45 96.3Q141 88.2 168 88.2Q190.8 88.2 210.15 93.3Q229.5 98.4 244.35 106.5Q259.2 114.6 267.6 123.9L246.6 147.6Q235.8 139.2 223.35 133.05Q210.9 126.9 196.95 123.3Q183 119.7 168 119.7Q147.9 119.7 130.65 125.4Q113.4 131.1 100.35 141.3Q87.3 151.5 80.1 165.15Q72.9 178.8 72.9 195Q72.9 214.8 80.55 229.35Q88.2 243.9 101.4 253.2Q114.6 262.5 131.25 267Q147.9 271.5 165.9 271.5Q184.2 271.5 200.25 268.05Q216.3 264.6 228.3 258.15Q240.3 251.7 246.9 243Q253.5 234.3 252.6 224.1L252.3 220.2L257.1 226.8L167.4 226.8L167.4 195.3L287.4 195.3Q288 199.8 288.3 202.5Q288.6 205.2 288.6 206.55Q288.6 207.9 288.6 209.1Q288.6 232.8 279.45 250.5Q270.3 268.2 253.65 279.75Q237 291.3 214.05 297.15Q191.1 303 163.2 303ZM379.2 300L379.2 90L501.9 90Q520.5 90 535.95 98.55Q551.4 107.1 560.7 121.8Q570 136.5 570 154.5Q570 173.4 559.8 188.85Q549.6 204.3 532.8 213.45Q516 222.6 495.9 222.6L411.6 222.6L411.6 300L379.2 300ZM541.8 300L470.4 205.2L504.9 197.7L582.3 300.3L541.8 300ZM411.6 191.4L492.9 191.4Q504.3 191.4 514.05 186.3Q523.8 181.2 529.65 172.8Q535.5 164.4 535.5 154.5Q535.5 145.2 529.65 137.7Q523.8 130.2 514.05 125.7Q504.3 121.2 492.9 121.2L411.6 121.2L411.6 191.4ZM682.5 300L682.5 90L805.2 90Q823.8 90 839.25 98.55Q854.7 107.1 864 121.8Q873.3 136.5 873.3 154.5Q873.3 173.4 863.1 188.85Q852.9 204.3 836.1 213.45Q819.3 222.6 799.2 222.6L714.9 222.6L714.9 300L682.5 300ZM714.9 191.4L796.2 191.4Q807.6 191.4 817.35 186.3Q827.1 181.2 832.95 172.8Q838.8 164.4 838.8 154.5Q838.8 145.2 832.95 137.7Q827.1 130.2 817.35 125.7Q807.6 121.2 796.2 121.2L714.9 121.2L714.9 191.4Z" />
        </g>
      </g>
    </g>
  </g>
</svg>