<svg width="1000" height="1000" viewBox="0 0 1000 1000" fill="none" xmlns="http://www.w3.org/2000/svg">
<rect width="1000" height="1000" fill="#3647EF"/>
<path fill-rule="evenodd" clip-rule="evenodd" d="M526.88 543.32C527.733 533.08 528.587 523.693 529.44 515.16C530.293 506.627 531.147 498.307 532 490.2C532.853 481.667 533.92 473.347 535.2 465.24C536.48 456.707 537.76 447.533 539.04 437.72C543.733 407 555.68 382.467 574.88 364.12C593.653 345.347 617.333 335.96 645.92 335.96C681.76 335.96 709.067 350.253 727.84 378.84C746.613 407 756 447.96 756 501.72C756 525.613 753.867 547.587 749.6 567.64C745.333 587.267 739.147 604.12 731.04 618.2C723.36 632.28 713.973 643.373 702.88 651.48C691.787 659.16 679.627 663 666.4 663C657.44 663 649.12 661.507 641.44 658.52C633.76 655.533 626.933 651.48 620.96 646.36C615.413 641.24 610.933 635.267 607.52 628.44C604.107 621.187 602.4 613.72 602.4 606.04C602.4 591.533 606.88 578.52 615.84 567C618.4 578.52 624.587 587.907 634.4 595.16C644.64 602.413 656.16 606.04 668.96 606.04C687.733 606.04 702.24 596.867 712.48 578.52C722.72 559.747 727.84 533.293 727.84 499.16C727.84 426.2 705.44 389.72 660.64 389.72C643.573 389.72 629.28 395.48 617.76 407C606.667 418.52 600.053 432.173 597.92 447.96C596.64 458.2 595.147 468.867 593.44 479.96L589.6 511.96C588.32 522.2 587.253 531.8 586.4 540.76C585.547 549.72 584.693 556.973 583.84 562.52C581.28 586.413 574.88 604.547 564.64 616.92C554.4 629.293 540.32 635.48 522.4 635.48C507.467 635.48 494.24 629.293 482.72 616.92C471.2 604.547 463.947 588.973 460.96 570.2L458.4 570.2C454.56 579.587 449.227 588.333 442.4 596.44C435.147 604.547 427.04 611.587 418.08 617.56C409.12 623.107 399.52 627.587 389.28 631C378.613 634.413 367.733 636.12 356.64 636.12C340.427 636.12 325.493 633.133 311.84 627.16C298.187 620.76 286.453 612.013 276.64 600.92C266.4 589.4 258.507 575.96 252.96 560.6C246.987 545.24 244 528.387 244 510.04C244 491.267 246.987 473.56 252.96 456.92C258.507 440.28 266.827 425.987 277.92 414.04C283.488 408.472 293.467 401.48 297.76 398.68C313.547 388.44 333.387 383.32 357.28 383.32C393.547 383.32 422.133 394.627 443.04 417.24C463.52 439.853 475.467 473.773 478.88 519C481.013 545.027 483.787 563.16 487.2 573.4C490.613 583.64 496.8 588.76 505.76 588.76C512.587 588.76 517.707 584.92 521.12 577.24C524.107 569.56 526.027 558.253 526.88 543.32ZM427.68 466.52C443.893 476.333 452 490.2 452 508.12C452 526.467 443.467 541.187 426.4 552.28C409.333 563.373 386.72 568.92 358.56 568.92C330.4 568.92 308.213 563.587 292 552.92C275.787 541.827 267.68 527.107 267.68 508.76C267.68 490.413 275.787 476.333 292 466.52C307.787 456.28 330.187 451.16 359.2 451.16C388.64 451.16 411.467 456.28 427.68 466.52Z" fill="#FFF7D9"/>
</svg>
